<?xml version="1.0" standalone="no"?>
<!DOCTYPE svg PUBLIC "-//W3C//DTD SVG 20010904//EN"
 "http://www.w3.org/TR/2001/REC-SVG-20010904/DTD/svg10.dtd">
<svg version="1.0" xmlns="http://www.w3.org/2000/svg"
 width="320.000000pt" height="320.000000pt" viewBox="0 0 320.000000 320.000000"
 preserveAspectRatio="xMidYMid meet">
<metadata>
Created by potrace 1.11, written by Peter Selinger 2001-2013
</metadata>
<g transform="translate(0.000000,320.000000) scale(0.100000,-0.100000)"
fill="#000000" stroke="none">
<path d="M594 3156 c-50 -22 -115 -87 -137 -135 -20 -45 -22 -69 -167 -1486
-22 -220 -50 -485 -60 -590 -11 -104 -20 -198 -20 -207 0 -17 70 -18 1398 -16
l1397 3 -3 25 c-25 246 -244 2193 -248 2215 -16 81 -80 158 -159 191 -50 21
-1953 21 -2001 0z m1033 -178 c6 -7 34 -161 62 -343 29 -181 56 -333 59 -336
4 -3 131 83 282 193 273 197 316 221 314 173 0 -11 -89 -143 -198 -294 -108
-150 -195 -276 -191 -279 3 -3 152 -29 332 -58 179 -29 332 -55 340 -58 17 -7
17 -45 0 -52 -8 -3 -161 -29 -340 -58 -180 -29 -329 -55 -332 -58 -4 -3 83
-129 191 -279 109 -151 198 -283 198 -294 2 -48 -41 -24 -314 173 -151 110
-278 196 -282 193 -3 -3 -30 -156 -60 -340 -42 -267 -56 -336 -70 -345 -13 -8
-21 -7 -29 1 -7 7 -34 148 -60 315 -61 377 -59 368 -71 368 -6 0 -131 -88
-280 -195 -148 -107 -278 -195 -288 -195 -21 0 -34 27 -22 44 5 6 96 132 202
279 124 174 189 271 182 276 -7 4 -135 27 -284 50 -408 65 -393 61 -393 91 0
30 -15 26 393 91 149 23 277 46 284 50 7 5 -58 102 -182 276 -106 147 -197
273 -202 279 -12 17 1 44 22 44 10 0 140 -88 288 -195 149 -107 275 -195 280
-195 11 0 17 29 72 384 23 143 45 271 50 284 11 24 32 29 47 10z"/>
</g>
</svg>
